<svg width="480" height="480" viewBox="0 0 480 480" fill="none" xmlns="http://www.w3.org/2000/svg">
<rect x="1.92" y="1.92" width="476.16" height="476.16" fill="white" stroke="#9A9FAA" stroke-width="3.84"/>
<path d="M35.1488 301H43.0208V288.667H50.1056C58.0826 288.667 63.383 283.892 63.383 276.492C63.383 269.04 58.0826 264.264 50.1056 264.264H35.1488V301ZM49.3709 270.824C53.0445 270.824 55.4061 272.976 55.4061 276.492C55.4061 279.956 53.0445 282.107 49.3709 282.107H43.0208V270.824H49.3709ZM67.2178 301H74.6175V264.264H67.2178V301ZM105.489 294.755C104.335 294.755 103.757 294.492 103.757 293.076V283.524C103.757 277.069 99.4015 273.71 91.8444 273.71C84.7071 273.71 79.879 277.174 79.3542 282.422H86.4915C86.8063 280.428 88.7481 279.116 91.6345 279.116C94.7308 279.116 96.4627 280.69 96.4627 283.104V284.416H91.1097C83.0278 284.416 78.7244 287.67 78.7244 293.39C78.7244 298.533 82.9228 301.315 88.7481 301.315C92.9465 301.315 95.6755 299.583 97.5647 296.592C97.5123 299.163 98.7193 301 102.55 301H106.329V294.755H105.489ZM96.4627 289.874C96.4102 293.548 94.0486 295.962 90.1651 295.962C87.6985 295.962 86.1766 294.755 86.1766 292.866C86.1766 290.609 87.9609 289.349 91.0572 289.349H96.4627V289.874ZM111.133 293.285C111.133 298.428 113.705 301 118.848 301H124.883V294.755H121.209C119.268 294.755 118.533 293.968 118.533 292.078V280.27H124.726V274.025H118.533V266.468H111.133V274.025H106.672V280.27H111.133V293.285ZM132.034 271.139C134.448 271.139 136.337 269.355 136.337 266.993C136.337 264.579 134.448 262.795 132.034 262.795C129.62 262.795 127.73 264.579 127.73 266.993C127.73 269.355 129.62 271.139 132.034 271.139ZM128.308 301H135.76V274.025H128.308V301ZM156.346 273.71C152.2 273.71 149.733 275.285 148.001 277.384L147.319 274.025H140.864V301H148.264V287.198C148.264 282.527 150.468 279.798 154.299 279.798C158.025 279.798 159.757 282.212 159.757 286.778V301H167.157V286.043C167.157 276.807 162.171 273.71 156.346 273.71ZM189.82 287.513C189.82 292.498 187.668 295.175 183.994 295.175C180.321 295.175 178.746 292.813 178.746 287.985V274.025H171.347V288.982C171.347 298.533 176.49 301.315 182.053 301.315C185.884 301.315 188.245 299.845 189.977 297.746L190.659 301H197.219V274.025H189.82V287.513ZM234.639 273.71C230.546 273.71 227.397 275.39 225.508 278.276C223.828 274.865 220.732 273.658 217.426 273.71C213.49 273.763 211.128 275.285 209.501 277.384L208.819 274.025H202.364V301H209.764V286.306C209.764 282.265 211.863 279.798 215.064 279.798C218.318 279.798 219.787 281.897 219.787 285.938V301H227.187V286.253C227.187 282.16 229.339 279.798 232.54 279.798C235.741 279.798 237.211 281.897 237.211 285.938V301H244.61V285.518C244.61 276.859 240.202 273.71 234.639 273.71ZM260.753 271.034H271.354V301H279.226V271.034H289.88V264.264H260.753V271.034ZM306.347 274.025C302.149 274.025 300.049 275.652 298.58 278.066L297.898 274.025H291.18V301H298.58V287.775C298.58 283.682 300.259 280.743 304.668 280.743H307.607V274.025H306.347ZM328.912 287.513C328.912 292.498 326.761 295.175 323.087 295.175C319.413 295.175 317.839 292.813 317.839 287.985V274.025H310.439V288.982C310.439 298.533 315.582 301.315 321.145 301.315C324.976 301.315 327.338 299.845 329.07 297.746L329.752 301H336.312V274.025H328.912V287.513ZM340.197 292.026C340.512 297.799 345.602 301.315 353.107 301.315C360.349 301.315 365.387 297.904 365.387 292.551C365.387 286.463 360.244 285.046 354.052 284.416C350.168 283.944 347.859 283.734 347.859 281.687C347.859 279.956 349.748 278.906 352.635 278.906C355.626 278.906 357.673 280.218 357.883 282.37H364.968C364.6 276.859 359.615 273.658 352.372 273.658C345.445 273.605 340.774 277.122 340.774 282.475C340.774 288.037 345.655 289.454 351.953 290.189C356.308 290.766 358.145 290.924 358.145 293.128C358.145 295.017 356.256 296.014 353.16 296.014C349.538 296.014 347.492 294.388 347.229 292.026H340.197ZM371.227 293.285C371.227 298.428 373.799 301 378.942 301H384.977V294.755H381.303C379.361 294.755 378.627 293.968 378.627 292.078V280.27H384.819V274.025H378.627V266.468H371.227V274.025H366.766V280.27H371.227V293.285ZM401.321 301.315C408.511 301.315 413.182 297.116 414.022 291.868H406.727C406.097 294.388 403.998 295.7 401.007 295.7C397.28 295.7 394.814 293.39 394.656 289.559V289.192H414.232C414.389 288.352 414.441 287.46 414.441 286.673C414.336 278.748 408.879 273.71 400.797 273.71C392.452 273.71 386.942 279.168 386.942 287.565C386.942 295.909 392.347 301.315 401.321 301.315ZM394.814 284.364C395.234 281.163 397.648 279.221 400.849 279.221C404.208 279.221 406.464 281.058 406.989 284.364H394.814ZM438.06 277.384C436.329 275.18 433.652 273.71 429.926 273.71C422.736 273.71 417.436 279.116 417.436 287.46C417.436 296.014 422.736 301.315 429.978 301.315C433.862 301.315 436.486 299.583 438.27 297.274L439.005 301H445.46V264.264H438.06V277.384ZM431.605 295.28C427.564 295.28 424.993 292.131 424.993 287.513C424.993 282.894 427.564 279.746 431.605 279.746C435.646 279.746 438.165 282.947 438.165 287.565C438.165 292.131 435.646 295.28 431.605 295.28ZM33.6794 342.93C33.7318 350.382 39.5571 355.315 48.8986 355.315C57.5053 355.315 63.1731 350.592 63.2256 343.717C63.2781 336.317 57.7152 334.428 51.4176 333.273C45.3299 332.119 42.4435 331.489 42.4435 328.498C42.4435 325.664 44.8576 324.247 48.2163 324.247C52.0474 324.247 54.409 326.398 54.7763 329.495H62.4909C62.3859 322.462 56.8755 317.949 48.2163 317.949C39.9245 317.949 34.519 322.567 34.519 329.075C34.519 336.527 39.977 338.521 46.1696 339.676C52.3098 340.883 55.3011 341.513 55.3011 344.609C55.3011 347.495 52.6246 349.07 49.0035 349.07C44.4902 349.07 41.6563 346.603 41.3939 343.035L33.6794 342.93ZM80.7014 355.315C87.8912 355.315 92.5619 351.116 93.4016 345.868H86.1069C85.4771 348.388 83.3779 349.7 80.3866 349.7C76.6605 349.7 74.1939 347.39 74.0365 343.559V343.192H93.6115C93.769 342.352 93.8214 341.46 93.8214 340.673C93.7165 332.748 88.2586 327.71 80.1766 327.71C71.8323 327.71 66.3219 333.168 66.3219 341.565C66.3219 349.909 71.7274 355.315 80.7014 355.315ZM74.1939 338.364C74.6138 335.163 77.0278 333.221 80.2291 333.221C83.5878 333.221 85.8445 335.058 86.3693 338.364H74.1939ZM113.032 328.025C108.834 328.025 106.734 329.652 105.265 332.066L104.583 328.025H97.8653V355H105.265V341.775C105.265 337.682 106.944 334.743 111.353 334.743H114.292V328.025H113.032ZM125.194 355H134.378L144.087 328.025H136.32L129.917 347.443L123.41 328.025H115.485L125.194 355ZM150.279 325.139C152.693 325.139 154.582 323.355 154.582 320.993C154.582 318.579 152.693 316.795 150.279 316.795C147.865 316.795 145.976 318.579 145.976 320.993C145.976 323.355 147.865 325.139 150.279 325.139ZM146.553 355H154.005V328.025H146.553V355ZM171.809 355.315C179.156 355.315 184.037 351.274 185.087 344.819H177.32C176.795 347.548 174.853 349.28 171.967 349.28C168.083 349.28 165.617 346.131 165.617 341.513C165.617 336.947 168.083 333.746 171.967 333.746C174.853 333.746 176.69 335.425 177.32 338.101H185.034C183.985 331.699 179.419 327.71 172.072 327.71C163.517 327.71 158.059 333.168 158.059 341.513C158.059 350.014 163.255 355.315 171.809 355.315ZM202.318 355.315C209.507 355.315 214.178 351.116 215.018 345.868H207.723C207.093 348.388 204.994 349.7 202.003 349.7C198.277 349.7 195.81 347.39 195.653 343.559V343.192H215.228C215.385 342.352 215.438 341.46 215.438 340.673C215.333 332.748 209.875 327.71 201.793 327.71C193.449 327.71 187.938 333.168 187.938 341.565C187.938 349.909 193.344 355.315 202.318 355.315ZM195.81 338.364C196.23 335.163 198.644 333.221 201.845 333.221C205.204 333.221 207.461 335.058 207.986 338.364H195.81ZM238.272 355L241.106 346.971H255.065L257.899 355H266.349L253.019 318.264H243.572L230.137 355H238.272ZM248.033 326.661L252.914 340.62H243.205L248.033 326.661ZM272.672 355H280.544L285.372 338.731L290.095 355H297.967L306.836 328.025H299.279L293.769 347.076L288.835 328.025H282.171L277.08 347.023L271.675 328.025H263.855L272.672 355ZM333.911 348.755C332.756 348.755 332.179 348.492 332.179 347.076V337.524C332.179 331.069 327.823 327.71 320.266 327.71C313.128 327.71 308.3 331.174 307.775 336.422H314.913C315.228 334.428 317.169 333.116 320.056 333.116C323.152 333.116 324.884 334.69 324.884 337.104V338.416H319.531C311.449 338.416 307.146 341.67 307.146 347.39C307.146 352.533 311.344 355.315 317.169 355.315C321.368 355.315 324.097 353.583 325.986 350.592C325.934 353.163 327.141 355 330.972 355H334.75V348.755H333.911ZM324.884 343.874C324.831 347.548 322.47 349.962 318.586 349.962C316.12 349.962 314.598 348.755 314.598 346.866C314.598 344.609 316.382 343.349 319.479 343.349H324.884V343.874ZM352.78 328.025C348.581 328.025 346.482 329.652 345.012 332.066L344.33 328.025H337.613V355H345.012V341.775C345.012 337.682 346.692 334.743 351.1 334.743H354.039V328.025H352.78ZM376.048 331.384C374.316 329.18 371.64 327.71 367.913 327.71C360.724 327.71 355.423 333.116 355.423 341.46C355.423 350.014 360.724 355.315 367.966 355.315C371.849 355.315 374.473 353.583 376.258 351.274L376.992 355H383.448V318.264H376.048V331.384ZM369.593 349.28C365.552 349.28 362.98 346.131 362.98 341.513C362.98 336.894 365.552 333.746 369.593 333.746C373.634 333.746 376.153 336.947 376.153 341.565C376.153 346.131 373.634 349.28 369.593 349.28Z" fill="#292F36"/>
<path d="M32.9091 445.2H55.1616V439.962H41.9573L48.7543 434.42C52.5641 431.347 54.9885 428.619 54.9885 424.16C54.9885 418.489 51.1354 414.635 44.0354 414.635C37.1085 414.635 32.8226 419.051 32.8226 424.766V425.632H39.1V425.156C39.1 421.865 41.0915 419.874 43.9921 419.874C46.7628 419.874 48.711 421.432 48.711 424.42C48.711 426.887 47.0659 428.706 44.425 430.87L32.9091 440.395V445.2ZM57.8252 430.74C57.8252 439.962 62.977 445.46 70.2935 445.46C77.6532 445.46 82.8051 439.962 82.8051 430.74V429.355C82.8051 420.307 77.6532 414.635 70.2935 414.635C62.977 414.635 57.8252 420.307 57.8252 429.355V430.74ZM76.5709 430.524C76.5709 436.801 74.0167 440.178 70.2935 440.178C66.6136 440.178 64.0593 436.801 64.0593 430.524V429.572C64.0593 423.337 66.6136 419.917 70.2935 419.917C74.0167 419.917 76.5709 423.337 76.5709 429.572V430.524ZM85.2072 445.2H107.46V439.962H94.2554L101.052 434.42C104.862 431.347 107.286 428.619 107.286 424.16C107.286 418.489 103.433 414.635 96.3334 414.635C89.4066 414.635 85.1206 419.051 85.1206 424.766V425.632H91.398V425.156C91.398 421.865 93.3895 419.874 96.2901 419.874C99.0608 419.874 101.009 421.432 101.009 424.42C101.009 426.887 99.3639 428.706 96.723 430.87L85.2072 440.395V445.2ZM126.748 429.442C129.735 428.662 132.029 426.498 132.029 422.818C132.029 417.839 127.96 414.635 121.12 414.635C114.496 414.635 109.907 418.489 109.82 424.16H115.924C116.011 421.346 118.089 419.528 121.033 419.528C123.631 419.528 125.709 420.826 125.709 423.294C125.709 425.675 124.02 427.364 120.687 427.364H118.046V432.342H121.033C124.54 432.342 126.315 433.857 126.315 436.239C126.315 438.966 124.107 440.568 121.293 440.568C118.002 440.568 115.578 438.75 115.491 435.329H109.301C109.301 441.823 113.846 445.46 120.99 445.46C128.133 445.46 132.635 441.867 132.635 436.628C132.635 432.212 129.995 430.091 126.748 429.442Z" fill="#9A9FAA"/>
<path d="M307.4 426.133H293.373C293.99 423.282 296.614 421.384 300.3 421.384C303.987 421.384 306.338 423.064 307.4 426.133M316.288 432.389V431.436C316.288 420.26 309.751 413.387 300.199 413.387C296.122 413.387 292.154 415.066 289.132 418.081C286.171 421.041 284.555 424.899 284.555 429.085C284.555 433.272 286.062 437.13 288.968 440.207C292.045 443.449 295.731 445.011 300.308 445.011C307.017 445.011 311.984 441.824 314.89 435.568H305.166C303.823 436.74 302.37 437.247 300.581 437.247C296.723 437.247 294.435 435.568 293.654 432.389H316.28H316.288Z" fill="#292F36"/>
<path d="M340.798 426.133H326.771C327.388 423.282 330.012 421.384 333.699 421.384C337.385 421.384 339.728 423.064 340.798 426.133M349.686 432.389V431.436C349.686 420.26 343.149 413.387 333.597 413.387C329.52 413.387 325.553 415.066 322.53 418.081C319.57 421.041 317.953 424.899 317.953 429.085C317.953 433.272 319.461 437.13 322.366 440.207C325.443 443.449 329.13 445.011 333.707 445.011C340.416 445.011 345.383 441.824 348.288 435.568H338.565C337.221 436.74 335.768 437.247 333.988 437.247C330.129 437.247 327.841 435.568 327.06 432.389H349.686V432.389Z" fill="#292F36"/>
<path d="M272.046 420.991V444.289H280.708V420.991H284.23V414.29H280.708V413.564C280.708 410.822 281.325 409.932 284.004 409.932H284.23V403.895C283.73 403.895 283.277 403.84 282.832 403.84C275.451 403.84 271.991 406.745 271.991 413.173C271.991 413.509 272.046 413.9 272.046 414.29H268.805V420.999H272.046V420.991Z" fill="#292F36"/>
<path d="M353.054 420.992V444.29H361.715V420.992H365.238V414.291H361.715V413.565C361.715 410.823 362.332 409.933 365.011 409.933H365.23V403.895C364.73 403.895 364.277 403.841 363.832 403.841C356.459 403.841 352.991 406.746 352.991 413.174C352.991 413.51 353.046 413.9 353.046 414.291H349.805V421H353.046L353.054 420.992Z" fill="#292F36"/>
<path d="M388.142 429.318C388.142 433.395 384.955 436.691 381.05 436.691C377.145 436.691 373.951 433.395 373.951 429.318C373.951 425.241 377.137 421.891 381.05 421.891C384.963 421.891 388.142 425.187 388.142 429.318ZM396.913 429.1C396.913 425.023 395.179 420.883 392 417.868C388.986 415.018 385.244 413.51 380.878 413.51C376.801 413.51 372.834 415.189 369.811 418.204C366.851 421.164 365.234 425.023 365.234 429.209C365.234 433.395 366.742 437.254 369.647 440.276C372.724 443.517 376.411 445.08 380.988 445.08C385.565 445.08 389.314 443.463 392.391 440.386C395.406 437.371 396.913 433.622 396.913 429.1" fill="#292F36"/>
<path d="M410.442 424.228C406.193 423.97 402.772 420.557 402.538 416.3H421.126V416.097C421.126 408.795 416.464 403.929 410.012 403.929C403.202 403.929 398.578 408.919 398.578 415.402C398.578 421.525 403.366 426.922 409.895 426.922C414.644 426.922 418.416 424.29 420.439 419.417H418.565C417.214 422.267 414.316 424.236 410.95 424.236C410.778 424.236 410.622 424.235 410.45 424.22" fill="#FFD100"/>
<path d="M434.052 424.228C438.3 423.97 441.721 420.557 441.956 416.3H423.367V416.097C423.367 408.795 428.03 403.929 434.481 403.929C441.292 403.929 445.916 408.919 445.916 415.402C445.916 421.525 441.128 426.922 434.598 426.922C429.858 426.922 426.085 424.29 424.054 419.417H425.937C427.288 422.267 430.186 424.236 433.552 424.236C433.724 424.236 433.88 424.235 434.052 424.22" fill="#FFD100"/>
<path d="M32.0078 94.4004L107.208 169.6L182.408 94.4004H32.0078Z" fill="#D9D9D9"/>
<path d="M32.0078 94.4012H107.208V19.2012L32.0078 94.4012Z" fill="url(#paint0_linear_162_11065)"/>
<path d="M182.403 94.4004H107.203V169.6L182.403 94.4004Z" fill="#9A9FAA"/>
<path d="M160.685 223.078L107.21 169.602L53.7344 223.078H160.685Z" fill="#9A9FAA"/>
<defs>
<linearGradient id="paint0_linear_162_11065" x1="32.0078" y1="56.8012" x2="107.208" y2="56.8012" gradientUnits="userSpaceOnUse">
<stop offset="0.4062" stop-color="#C4C4C4"/>
<stop offset="1" stop-color="#D9D9D9" stop-opacity="0"/>
</linearGradient>
</defs>
</svg>
